# xmcd CD database file
#
# Track frame offsets:
#	150
#	12756
#	27876
#	42516
#	55497
#	67837
#	81815
#	95457
#	110425
#	123319
#	138017
#	152457
#	167260
#	182335
#	195256
#	207420
#	224155
#	235526
#	250704
#	268040
#
# Disc length: 3777 seconds
#
# Revision: 0
# Processed by: cddbd v1.5.1PL0 Copyright (c) Steve Scherf et al.
# Submitted via: CDex 1.51
#
DISCID=fe0ebf14
DTITLE=Sawyer Brown - GREATEST HITS 1 AND 2 
DYEAR=1900
DGENRE=Country
TTITLE0=Step That Step
TTITLE1=Heart, Don't Fall now
TTITLE2=Betty's Being Bad
TTITLE3=The Race Is On
TTITLE4=When Love Comes calling In The Middle Of The Night
TTITLE5=The Dark Back In To The Night
TTITLE6=Leona
TTITLE7=I'm Getting Use To Blue
TTITLE8=Out Going Cattin
TTITLE9=She's Shakin'
TTITLE10=Some Girls Do
TTITLE11=Thank God For You
TTITLE12=All These years
TTITLE13=On The Dirt Road
TTITLE14=This Time
TTITLE15=The Walk
TTITLE16=Trouble On The Line
TTITLE17=Cafe On The Corner
TTITLE18=Don't Believe in GoodBye
TTITLE19=The Boys and Me
EXTD=
EXTT0=
EXTT1=
EXTT2=
EXTT3=
EXTT4=
EXTT5=
EXTT6=
EXTT7=
EXTT8=
EXTT9=
EXTT10=
EXTT11=
EXTT12=
EXTT13=
EXTT14=
EXTT15=
EXTT16=
EXTT17=
EXTT18=
EXTT19=
PLAYORDER=
